<mxfile host="app.diagrams.net" modified="2024-05-20T15:56:30.015Z" agent="Mozilla/5.0 (Windows NT 10.0; Win64; x64) AppleWebKit/537.36 (KHTML, like Gecko) Chrome/124.0.0.0 Safari/537.36" version="24.4.4" etag="v9ktuC7zbmqiJRGGT0ZT" type="github">
  <diagram name="Страница — 1" id="HoIlFFRIu7eG3agP94VW">
    <mxGraphModel>
      <root>
        <mxCell id="0" />
        <mxCell id="1" parent="0" />
      </root>
    </mxGraphModel>
  </diagram>
</mxfile>
